<svg viewBox="0 0 14 14" xmlns="http://www.w3.org/2000/svg"><path d="m6.8401012 1.00356c-.5603958.0934-2.0051662.242254-3.0792581.569152-1.0740919.420296-2.0547845 1.120791-2.5684807 1.400989-.37359716.186799-.1400989.50494 0 .831838 1.2141909 3.595873 2.8924595 4.667046 4.0132511 4.947244.093399-.607096.288954-1.295916.5691519-2.04311-.093399 0-.1400989.04378-.2334982.04378-.7004947.233498-1.3572086 1.12371-1.3572086 1.12371s.096318-1.450608 1.1237103-1.824205c.2334983-.0934.5107775-.09048.7442757-.04378l.2772792-.569152c0-.0467.043781-.04086.043781-.08756.093399-.280197.3356537-.890212 1.0361485-.890212.093399 0 .2276607-.0029.32106.04378.093399.0934.1838799.09632.2772792.189718-.0466997-.840595-.2218234-1.821288-.6421203-3.035479-.0933993-.280197-.1050742-.703413-.525371-.656713zm-.5983393 2.480918c.5603958 0 .9777739.423216.9777739.423216s-.4173781.466997-.9777739.466997-.9777739-.423216-.9777739-.423216.4640778-.420297.9777739-.466997zm-2.2036397.875619c.2159859-.01751.3794347.01459.3794347.01459s-.090481.650876-.5107774.977773c-.4202969.326898-1.0799294.233499-1.0799294.233499s.090481-.650877.5107774-.977774c.2101484-.163449.4845089-.23058.7004947-.248092zm3.371131.817244c-.2841198-.0096-.3035478.353166-.4669965.598339-2.5217811 5.136961-.332735 6.859011.087562 7.092509.4202968.186799 3.1843323.843513 5.7061133-4.246749.186799-.233498.461159-.569152.08756-.80265-.466995-.326898-1.500224-1.164573-2.480917-1.678269-.9806928-.513696-2.2415833-.747194-2.8019791-.933993-.052537-.01751-.090754-.02782-.1313427-.02919zm-.1313428 2.539293c.204311-.01751.4728339-.01459.729682.102156.4669965.233498.7004947.80265.7004947.80265s-.5516396.236417-1.0653357-.04378c-.4669965-.233498-.7004947-.80265-.7004947-.80265s.1313427-.04086.3356537-.05838zm2.4079506 1.167491c.2101485-.01751.48159-.01459.715088.102156.513697.233498.700495.846431.700495.846431s-.612933.192636-1.079929-.08756c-.5136964-.233498-.700495-.80265-.700495-.80265s.1546926-.04086.364841-.05837zm-2.9771026.525371s.5107774 1.030311 1.2112722 1.357209c.7004947.326898 1.824205.08756 1.824205.08756s-1.1762474 1.167491-2.2036397.700495c-.9806926-.466995-.8318375-2.145264-.8318375-2.145264z"/></svg>